HIERARCHY
ROOT Hips
{
	OFFSET -14.64140 90.27770 -84.91600
	CHANNELS 6 Xposition Yposition Zposition Zrotation Xrotation Yrotation
	JOINT Spine
	{
		OFFSET 0.00000 13.20850 -1.60436
		CHANNELS 3 Zrotation Xrotation Yrotation
		JOINT Spine1
		{
			OFFSET 0.00000 8.61716 0.00000
			CHANNELS 3 Zrotation Xrotation Yrotation
			JOINT Spine2
			{
				OFFSET 0.00000 8.61717 0.00000
				CHANNELS 3 Zrotation Xrotation Yrotation
				JOINT Spine3
				{
					OFFSET 0.00000 8.61717 0.00000
					CHANNELS 3 Zrotation Xrotation Yrotation
					JOINT Neck
					{
						OFFSET 0.00000 11.07920 1.10792
						CHANNELS 3 Zrotation Xrotation Yrotation
						JOINT Neck1
						{
							OFFSET 0.00000 7.08032 0.00000
							CHANNELS 3 Zrotation Xrotation Yrotation
							JOINT Head
							{
								OFFSET 0.00000 7.08031 0.00000
								CHANNELS 3 Zrotation Xrotation Yrotation
								End site
								{
									OFFSET 0.00000 0.00000 0.00000
								}
							}
						}
					}
					JOINT RightShoulder
					{
						OFFSET -0.01000 7.91373 5.19711
						CHANNELS 3 Zrotation Xrotation Yrotation
						JOINT RightArm
						{
							OFFSET -18.41580 0.00000 0.00000
							CHANNELS 3 Zrotation Xrotation Yrotation
							JOINT RightForeArm
							{
								OFFSET -29.11090 0.00000 0.00000
								CHANNELS 3 Zrotation Xrotation Yrotation
								JOINT RightHand
								{
									OFFSET -24.65040 0.00000 0.00000
									CHANNELS 3 Zrotation Xrotation Yrotation
									JOINT RightHandThumb1
									{
										OFFSET -5.35114 -0.85590 3.97906
										CHANNELS 3 Zrotation Xrotation Yrotation
										JOINT RightHandThumb2
										{
											OFFSET -4.52789 0.00000 0.00000
											CHANNELS 3 Zrotation Xrotation Yrotation
											JOINT RightHandThumb3
											{
												OFFSET -2.46976 0.00000 0.00000
												CHANNELS 3 Zrotation Xrotation Yrotation
												End site
												{
													OFFSET 0.00000 0.00000 0.00000
												}
											}
										}
									}
									JOINT RightHandIndex1
									{
										OFFSET -14.26970 0.00000 2.88139
										CHANNELS 3 Zrotation Xrotation Yrotation
										JOINT RightHandIndex2
										{
											OFFSET -5.48836 0.00000 0.00000
											CHANNELS 3 Zrotation Xrotation Yrotation
											JOINT RightHandIndex3
											{
												OFFSET -3.01859 0.00000 0.00000
												CHANNELS 3 Zrotation Xrotation Yrotation
												End site
												{
													OFFSET 0.00000 0.00000 0.00000
												}
											}
										}
									}
									JOINT RightHandMiddle1
									{
										OFFSET -14.26970 0.00000 -0.09147
										CHANNELS 3 Zrotation Xrotation Yrotation
										JOINT RightHandMiddle2
										{
											OFFSET -6.17441 0.00000 0.00000
											CHANNELS 3 Zrotation Xrotation Yrotation
											JOINT RightHandMiddle3
											{
												OFFSET -3.56743 0.00000 0.00000
												CHANNELS 3 Zrotation Xrotation Yrotation
												End site
												{
													OFFSET 0.00000 0.00000 0.00000
												}
											}
										}
									}
									JOINT RightHandRing1
									{
										OFFSET -12.69180 0.00000 -3.06433
										CHANNELS 3 Zrotation Xrotation Yrotation
										JOINT RightHandRing2
										{
											OFFSET -5.62556 0.00000 0.00000
											CHANNELS 3 Zrotation Xrotation Yrotation
											JOINT RightHandRing3
											{
												OFFSET -3.56744 0.00000 0.00000
												CHANNELS 3 Zrotation Xrotation Yrotation
												End site
												{
													OFFSET 0.00000 0.00000 0.00000
												}
											}
										}
									}
									JOINT RightHandPinky1
									{
										OFFSET -11.11390 0.00000 -6.03719
										CHANNELS 3 Zrotation Xrotation Yrotation
										JOINT RightHandPinky2
										{
											OFFSET -4.52789 0.00000 0.00000
											CHANNELS 3 Zrotation Xrotation Yrotation
											JOINT RightHandPinky3
											{
												OFFSET -2.46976 0.00000 0.00000
												CHANNELS 3 Zrotation Xrotation Yrotation
												End site
												{
													OFFSET 0.00000 0.00000 0.00000
												}
											}
										}
									}
								}
							}
						}
					}
					JOINT LeftShoulder
					{
						OFFSET 0.01000 7.91373 5.19711
						CHANNELS 3 Zrotation Xrotation Yrotation
						JOINT LeftArm
						{
							OFFSET 18.41580 0.00000 0.00000
							CHANNELS 3 Zrotation Xrotation Yrotation
							JOINT LeftForeArm
							{
								OFFSET 29.11090 0.00000 0.00000
								CHANNELS 3 Zrotation Xrotation Yrotation
								JOINT LeftHand
								{
									OFFSET 24.65040 0.00000 0.00000
									CHANNELS 3 Zrotation Xrotation Yrotation
									JOINT LeftHandThumb1
									{
										OFFSET 5.35114 -0.85590 3.97906
										CHANNELS 3 Zrotation Xrotation Yrotation
										JOINT LeftHandThumb2
										{
											OFFSET 4.52789 0.00000 0.00000
											CHANNELS 3 Zrotation Xrotation Yrotation
											JOINT LeftHandThumb3
											{
												OFFSET 2.46977 0.00000 0.00000
												CHANNELS 3 Zrotation Xrotation Yrotation
												End site
												{
													OFFSET 0.00000 0.00000 0.00000
												}
											}
										}
									}
									JOINT LeftHandIndex1
									{
										OFFSET 14.26970 0.00000 2.88139
										CHANNELS 3 Zrotation Xrotation Yrotation
										JOINT LeftHandIndex2
										{
											OFFSET 5.48836 0.00000 0.00000
											CHANNELS 3 Zrotation Xrotation Yrotation
											JOINT LeftHandIndex3
											{
												OFFSET 3.01859 0.00000 0.00000
												CHANNELS 3 Zrotation Xrotation Yrotation
												End site
												{
													OFFSET 0.00000 0.00000 0.00000
												}
											}
										}
									}
									JOINT LeftHandMiddle1
									{
										OFFSET 14.26970 0.00000 -0.09147
										CHANNELS 3 Zrotation Xrotation Yrotation
										JOINT LeftHandMiddle2
										{
											OFFSET 6.17440 0.00000 0.00000
											CHANNELS 3 Zrotation Xrotation Yrotation
											JOINT LeftHandMiddle3
											{
												OFFSET 3.56744 0.00000 0.00000
												CHANNELS 3 Zrotation Xrotation Yrotation
												End site
												{
													OFFSET 0.00000 0.00000 0.00000
												}
											}
										}
									}
									JOINT LeftHandRing1
									{
										OFFSET 12.69180 0.00000 -3.06433
										CHANNELS 3 Zrotation Xrotation Yrotation
										JOINT LeftHandRing2
										{
											OFFSET 5.62556 0.00000 0.00000
											CHANNELS 3 Zrotation Xrotation Yrotation
											JOINT LeftHandRing3
											{
												OFFSET 3.56744 0.00000 0.00000
												CHANNELS 3 Zrotation Xrotation Yrotation
												End site
												{
													OFFSET 0.00000 0.00000 0.00000
												}
											}
										}
									}
									JOINT LeftHandPinky1
									{
										OFFSET 11.11390 0.00000 -6.03719
										CHANNELS 3 Zrotation Xrotation Yrotation
										JOINT LeftHandPinky2
										{
											OFFSET 4.52789 0.00000 0.00000
											CHANNELS 3 Zrotation Xrotation Yrotation
											JOINT LeftHandPinky3
											{
												OFFSET 2.46976 0.00000 0.00000
												CHANNELS 3 Zrotation Xrotation Yrotation
												End site
												{
													OFFSET 0.00000 0.00000 0.00000
												}
											}
										}
									}
								}
							}
						}
					}
					JOINT pCube4
					{
						OFFSET 0.00000 10.91090 1.10792
						CHANNELS 3 Zrotation Xrotation Yrotation
						End site
						{
							OFFSET 0.00000 0.00000 0.00000
						}
					}
				}
			}
		}
	}
	JOINT RightUpLeg
	{
		OFFSET -9.98441 0.00000 0.00000
		CHANNELS 3 Zrotation Xrotation Yrotation
		JOINT RightLeg
		{
			OFFSET 0.00000 -42.11790 0.00000
			CHANNELS 3 Zrotation Xrotation Yrotation
			JOINT RightFoot
			{
				OFFSET 0.00000 -45.00020 -0.00001
				CHANNELS 3 Zrotation Xrotation Yrotation
				JOINT RightForeFoot
				{
					OFFSET 0.00000 -3.74820 0.00000
					CHANNELS 3 Zrotation Xrotation Yrotation
					JOINT RightToeBase
					{
						OFFSET 0.00000 0.06325 14.43120
						CHANNELS 3 Zrotation Xrotation Yrotation
						End site
						{
							OFFSET 0.00000 0.00000 0.00000
						}
					}
				}
			}
		}
	}
	JOINT LeftUpLeg
	{
		OFFSET 9.98441 0.00000 0.00000
		CHANNELS 3 Zrotation Xrotation Yrotation
		JOINT LeftLeg
		{
			OFFSET 0.00000 -42.11800 0.00000
			CHANNELS 3 Zrotation Xrotation Yrotation
			JOINT LeftFoot
			{
				OFFSET 0.00000 -45.00070 0.00000
				CHANNELS 3 Zrotation Xrotation Yrotation
				JOINT LeftForeFoot
				{
					OFFSET 0.00000 -3.74824 0.00000
					CHANNELS 3 Zrotation Xrotation Yrotation
					JOINT LeftToeBase
					{
						OFFSET 0.00000 0.06325 14.43110
						CHANNELS 3 Zrotation Xrotation Yrotation
						End site
						{
							OFFSET 0.00000 0.00000 0.00000
						}
					}
				}
			}
		}
	}
}
MOTION
Frames: 4
Frame Time: 0.050000
0.011486669165646298 -0.047274847240571086 -0.013774883527154062 -0.031063031563781197 0.04477798388217505 -0.028722934191310296 -4.668974146677796 7.469161131438875 -0.4995666034855919 -0.7164738963995841 2.9279686779483853 0.4195741422611745 -0.8596389647345423 -0.029701351375777264 -1.2423379327605302 -1.3296330118926887 0.28109501959164307 -0.9679293552676573 -0.9986640828906792 8.723406176007709 2.374840640315165 -0.15576123977396497 -0.8418236126325577 2.2974229151656 -0.682944787501591 -14.78302083409405 0.2467847122185224 2.9797812973362356 0.12022655145824561 -8.133197430248153 68.62044468037617 4.250977480397002 42.02377774917945 45.69899985820884 13.586836158303003 101.81508297654871 28.994967338228786 0.4694744553670177 -15.204738314214792 4.489546849576141 -0.1527206347621703 -1.6005856136176884 0.02458730802934086 -0.002045625082466299 -56.221857083309615 0.018129544882864796 0.03199826873522593 -56.26574179396377 -38.77415735688135 -0.023568508148256184 0.0015679881844311522 -0.0006924829897405775 0.014414296477749123 -0.030529737191302104 -0.03610319581347208 -0.04958411270033104 -0.010938447856280628 -36.66160192845289 0.03583048846262401 -0.012125297236181855 -0.03231336593587181 0.02785188645571151 0.04320537256831513 -0.004830472134141042 -0.02690509638464808 0.002459607490179473 -19.79573419651417 -0.007822632368686666 -0.012987517438244747 -0.03190280999716675 0.01821655507982629 -0.03398766332652071 -0.00942834661250131 -0.037656898207845624 0.04797114015344976 24.034529940225497 -0.009183074140655164 0.02744970419216145 28.867846513029193 -0.031916946619924745 -0.044045074940616394 28.81625136455738 0.01913306348884421 -0.018135616820786276 0.2119205094333513 0.5296574309891241 7.620805848229341 -62.9384430552927 18.803940037183207 -39.558948405933464 -57.63067550812157 16.014207149054275 -110.0000111215094 -25.786906719967096 -7.432779867503894 5.319353452927963 -0.4747454840893625 0.0599367160456166 -8.108853368865097 -0.016289074801182413 -0.048247540455213234 44.57103607790818 -0.022350750525317112 -0.02478016240881909 44.52809401579497 12.474942273179 -0.03405263760684569 -0.04361663108395338 0.0028381902006902725 0.019227741964658786 -0.034841268893446166 -0.004382817569123636 -0.009258901023798423 0.020594854044254738 11.08379015102833 0.0334563499107482 0.039364787780519335 0.02883569958081313 0.015070818593618146 0.019166631375633986 -0.048210516537163975 -0.01074395830607844 -0.03927259617113092 4.766406095461493 -0.047190405201188605 -0.016791850503135725 0.017541107103959876 -0.0046302952588830005 -0.0049399111750129164 0.03948990002960663 -0.004908830049564332 -0.015238240461547217 -5.627693163984961 0.014199631397319945 0.014486808845790664 -6.697238329204554 0.03438804085092735 -0.020443247539240525 -6.6717624547708745 0.04451179321170968 0.03257565693422808 -0.033204127977675635 0.00787158007418702 0.035167027893634024 8.001206715091463 3.4440547340485503 -19.207907924411828 0.03777333898877041 10.388378355383779 0.00839673755369236 -5.613713230353231 -15.657380854403288 3.2144035847213344 -0.01976375932923213 0.04187516923715814 0.021164057476808336 0.012071342906716546 4.666356450083434 -0.04024606869326446 12.488418585339998 -8.226848411686019 6.9196558567850985 -0.03333797491903025 46.374964955227675 0.032568603145195635 -4.362572950197507 -14.744296226786107 -3.8531702065482194 0.0036918781465718 0.04626889698482332 0.02291233858646698 0.027108509981922477 -10.774627770563997 -0.04380196587715433 
-0.04714277536545628 -0.04790734400876804 0.00996563613987718 -0.02768393792279002 0.02650465147236383 0.0067400796448359645 -4.853284354727511 7.467597431437211 -0.49843871286927327 -0.7212561255411503 2.868632765007697 0.37546430622113874 -0.9148224356073957 -0.04846132846374 -1.2980734260163487 -1.3998634034758677 0.32972129367697506 -0.9544729378160169 -0.9470767553651465 8.827127174090126 2.43869584337099 -0.17903169337246266 -0.7588007023709017 2.313146177961756 -0.6993106843891564 -14.69040491724175 0.27333188970048855 2.4110605999690753 0.26316768866256696 -8.172687311051039 67.73475480823704 0.813720287196411 44.93165466908932 43.598794234386176 12.798613622106956 102.13060041040563 29.371066061491273 0.49865982733182784 -15.049245001752551 4.503451716985136 -0.13396289599426936 -1.640209736432947 -0.007712235499582442 -0.01765861862350094 -56.24981873476978 0.022913339343430046 0.03863917650512336 -56.275047020694686 -38.75118613586899 -0.04285547288490748 0.0025464899610039473 -0.017594882883576225 0.01056848899733134 0.012067477835704667 0.035751661920894816 0.021073377845515374 -0.044202326144067244 -36.65998306531234 0.03944295684797769 0.0030963938686508602 -0.006775355166999393 0.04669538811515174 0.0342215227319241 0.01049368819654735 0.0005715222879127994 0.011320225457375469 -19.734953639328154 -0.007331584344514693 -0.029060761653090694 -0.03517498118883292 -0.019136456438136742 0.013341835032381493 -0.036037310694328306 -0.026728201047167537 0.024968200374973992 24.05212330427057 0.002649179181549417 -0.0049093346612648905 28.885108202908892 -0.02232907433074476 -0.02620207915912724 28.815848979062423 -0.0400398778176249 -0.007750569344315078 0.501362835111388 0.5667634348202383 7.5471520356756425 -62.196877349157276 18.38120182100823 -41.34072174699845 -51.447485331477516 14.973318467165726 -108.15309548049969 -24.716681172437163 -6.699043544779732 4.648499746187532 -0.47277482978833874 0.0413406395260974 -8.163614810816123 0.04559847051724792 -0.024709482127429547 44.5519434578126 -0.02939136945910581 -0.0316335561219657 44.58140949939798 12.473493578822858 0.0327159257787863 -0.04896776515661343 -0.012811654985045884 0.03937970285178083 0.004653710090578041 -0.021556296088028403 0.047745117416677876 -0.014600533459420095 11.06698136416368 -0.03637813676845589 -0.03001254691935393 0.04044118488232844 -0.0019466593001712647 0.012629456775151655 -0.02080382040863274 0.003682455457897322 5.1674488517526406e-05 4.731110577617836 0.041588657318988316 0.013068628907230049 -0.03532955067462571 -0.03281343019277542 0.021666590900318847 -0.0018359531594596338 -0.016794494416977848 -0.03341773022461109 -5.617127917471335 -0.026969558987126538 -0.027685223272657634 -6.769632926510067 0.034005979985279496 0.04015028818636795 -6.684831037323348 0.01211290385887989 0.03811184551633406 -0.006623250319094844 0.04361420016262217 -0.0419713296469085 8.058341011941824 3.535920739668209 -19.1703346684166 0.02328749466818892 10.432811059775283 -0.011221750119387735 -5.622971022631035 -15.665844058269828 3.19927683256501 -0.042862052035830045 0.009083174414185519 -0.005850657592907058 0.03786024157370029 4.704215197785896 0.0252920674730277 12.470159063995661 -8.260452689302037 6.89930349442645 0.004400147974067462 46.33007065689102 0.05052559132986167 -4.289633172032636 -14.747616256444827 -3.806868087304094 0.03179124962784764 -0.028844641934457946 0.02792542193326012 0.003906862070051535 -10.777898136411592 -0.013164955379153648 
-0.01755510907066939 0.024876305118200184 0.02337013725527659 -0.013853541966431987 0.021726503374188865 -0.04901315677552279 -4.92748678641376 7.5547732143326645 -0.4691240037504695 -0.7127669265103062 2.8705019069883937 0.37294706494686436 -0.9932349669499947 -0.0805029392852774 -1.3309267459769638 -1.4248647550328526 0.3010169211720504 -1.0462640005527635 -0.8913805227951159 8.952974007709992 2.195394399783861 -0.12418231878036792 -0.6766060733601 1.927616452427959 -0.6523199624601436 -14.558516273561265 0.21414925412551633 2.271003544480995 0.31161929645673175 -8.280611068117878 66.55346088221184 -1.9051973744873358 46.072437051382266 41.34709958549936 12.393746962192974 102.84722842751266 29.968461862565526 0.5225878874286674 -14.98752659451284 4.557118155835243 -0.08947984545174355 -1.6033785874455602 0.012542499937664252 0.03571426483051007 -56.27189688225808 -0.02721429477815542 0.0025862298368183496 -56.23245262135066 -38.779377155716205 0.001961416732977635 0.04691628127709257 -0.018411886829829232 0.008675192106298317 -0.01065208564875989 0.0002475428879106482 -0.00612570967753132 -0.013388186759358607 -36.71557624727929 0.00848119073710541 -0.01659931478891772 0.0021494870503658073 -0.02640543890645795 0.0023491480737561207 -0.03383607530368293 0.02041232823038704 0.024632577443448187 -19.78159450408522 0.037545561228320694 -0.002713235438593319 -0.01395396369757857 0.0056874548213473415 -0.0178887613228481 0.006051022057554065 0.010236668333164561 -0.038335998646498365 24.08461077358074 0.046123175139100796 -0.018361160294245935 28.893024289788567 -0.017151278505972627 0.035853752256621914 28.84163921937092 0.006696462976620424 0.015237130228884862 0.16489918840502757 0.5707835420489423 7.6289531367938785 -61.14901801816867 18.942550705258093 -41.30745323903032 -44.00227049428112 13.68388290843774 -106.55197387007031 -24.048820634776323 -6.265261830092029 4.241825382084022 -0.431382677903975 0.10190833076873135 -8.164422552673257 -0.03630124263440572 -0.030949805082436836 44.61594510931086 -0.0356013511744429 0.00821326378201165 44.56097339408902 12.432216146986029 -0.02666824116740324 0.03493588323445783 -0.02714634620825783 0.0018628180453941511 -0.01385508369214093 0.009798376963046274 -0.021839216950821874 0.012725113836993642 11.114455846516986 -0.03579936189806365 -0.03438883987052202 0.013912176481614852 -0.02831739465700878 -0.03578015438132459 0.023153346643796525 -0.04726662311528022 -0.03600713255525857 4.749833169947769 -0.039884820391592885 0.034974990469741375 -0.0300519948657817 -0.0073034314711091786 -0.039722533032728345 -0.014274719262612347 -0.03756971770441466 -0.04984363765752543 -5.561182015140772 -0.03786278538655989 0.018992666046810713 -6.719607279007893 0.04101285676638572 0.034314639302933526 -6.712676245566135 0.02165310748098258 0.014658044340735192 -0.039889791674559645 -0.00732237945556398 0.02897489322798528 8.085451112112537 3.503359326999852 -19.19463270292644 -0.017450307770562428 10.408203282183702 0.0430179078278793 -5.585775179753175 -15.660746247876453 3.228759890730581 0.013105511336203449 0.01248023281872208 -0.013811619113667387 -0.03500110077125122 4.702319129380451 0.03324973362887476 12.45257574362578 -8.275630960758157 6.857848061401014 0.035293985106751316 46.41644213015006 -0.0385759701140876 -4.280887620731408 -14.715947798326763 -3.8001842438793743 -0.015352551987747433 -0.03412458631806496 0.04029713314703708 -0.01681259316833677 -10.776599599192819 -0.02270944404458315 
-0.02400395024123636 -0.0017679275190767636 -0.008861314512805404 0.008655848230780782 0.04588583242915415 -0.038483963972410766 -5.039439067574045 7.5898461969109485 -0.4676263019727482 -0.7513401527427461 2.8531303418821365 0.3962427459797112 -0.9990743112694461 -0.114909780748735 -1.3509651722669667 -1.3001357736411285 0.3296252946592899 -1.03182287477141 -0.6846071073692426 8.997837398290928 1.898088761597966 -0.05168230843273089 -0.5975854264038675 1.12135425675349 -0.5424902986785948 -14.351723399546357 0.14551017559805587 2.261318186280353 0.36824112589185026 -8.33797973460702 65.60422401104661 -4.000505775474787 46.31776133852132 37.519419794975896 11.403190040842707 103.571173630752 29.751249118464422 0.3959861098288827 -14.620346183283758 4.507858068924354 -0.15216041888852433 -1.5797458687329775 -0.008438502486117902 0.04183107399369391 -56.22111333528192 -0.0014917277840811717 0.009050692610362761 -56.261121931815424 -38.75851136467408 0.03279840322918564 0.03452862017599206 -0.016324266838288415 0.025708398587593332 0.0015234219219584274 0.01201688260713003 -0.022831950440172746 -0.016221491381295215 -36.69428591210209 0.010049541407919436 0.025629540212415865 0.03370816114681762 -0.03234594304849834 -0.0245564015460961 -0.04084398760972285 -0.008544922182431816 -0.008744541144658769 -19.746312608148752 0.023444802180375996 -0.04062758175785635 0.0038646102218448655 0.025300429645544787 0.009564718530332752 -0.0367912926324475 0.040119648935746446 -0.005100084304025456 24.061118958632875 0.02224546454521461 -0.035920216401320315 28.892882218041088 0.01811517919310566 -0.02721925579724201 28.87714637194011 0.037940914848974314 -0.026920376199566665 -0.09453690341624402 0.48595942180320734 7.649683632904469 -59.90945339904234 20.25014581552655 -40.950432002950734 -32.85801780146416 10.658548912794267 -104.66449400107278 -22.261298286289936 -5.7501818455172025 3.5752392360678646 -0.5060603131407682 0.024887917925196137 -8.091412865001773 0.0031260149805222813 -0.02963590564072967 44.55784770086281 0.01830924038697956 0.014303801941750773 44.61299438767721 12.491510063365489 0.026544259601102186 0.017653016878516017 0.024099104853201755 -0.017720701619916727 0.04400452052550438 0.02314988601413707 -0.02755278900083153 0.025711359227678886 11.1438198788561 0.01779227586648868 0.015400016097173343 -0.03633595088546047 0.008447554506826993 0.040322522454012605 0.03301398810161361 -0.03359362567029 -0.007375918814031013 4.756393746146126 -0.022433732832810874 0.04307441984863942 -0.03728247863029342 0.026796370851301654 0.004249603074190659 -0.034866139275605085 -0.001124260433637692 -0.044201020501933246 -5.6478051931227675 -0.0013551538045944475 0.02733507369129778 -6.76902385829806 0.02848484613176928 0.02777182223281272 -6.735551419925159 -0.0034487789749363543 -0.0033727008453272784 -0.020177532482417514 0.03764510956064233 0.03141162726134915 8.051875592984521 3.490226175762692 -19.240417177091985 0.001484499717114166 10.356716949118834 0.026651506095759524 -5.65368682437363 -15.64550112765116 3.185312045042533 0.0012904175755011431 -0.019205475567184948 0.034439857910803395 -0.02362618251142101 4.682761661333196 -0.02662104155735651 12.470453551623953 -8.21897002375703 6.924935801195064 -0.027232984560070984 46.36116132182059 -0.0040886474516253265 -4.311149785457341 -14.736856576439385 -3.8452711202976984 -0.02805520674266675 0.02274426564552754 -0.03072345404318179 -0.044379102458965335 -10.764062835052375 0.007034834044127432 
